<svg version="1.1" xmlns="http://www.w3.org/2000/svg" xmlns:xlink="http://www.w3.org/1999/xlink" width="96.1071" height="46.53741" viewBox="0,0,96.1071,46.53741"><g transform="translate(-177.12034,-141.13541)"><g data-paper-data="{&quot;isPaintingLayer&quot;:true}" fill="#000000" fill-rule="nonzero" stroke="none" stroke-width="0.5" stroke-linecap="butt" stroke-linejoin="miter" stroke-miterlimit="10" stroke-dasharray="" stroke-dashoffset="0" style="mix-blend-mode: normal"><path d="M194.46892,159.64798c1.23744,1.23744 0,2.47487 0,2.47487l0.05406,-0.25417c-0.29534,0.68647 -0.41809,1.47674 -0.88603,2.05941c-4.49174,5.59304 -10.40764,1.08117 -13.97624,-2.80524c-0.85734,-0.93369 -2.13739,-1.66427 -2.47683,-2.88557c-0.43968,-1.58197 1.51485,-3.84336 2.41029,-4.85231c3.10567,-3.49937 6.29929,-7.22182 10.61462,-9.10806c0,0 1.6085,-0.68936 2.29786,0.91915c0.68936,1.60851 -0.91914,2.29786 -0.91914,2.29786c-3.42634,1.43264 -5.21361,4.05816 -7.78526,6.62894c-0.01228,0.01228 -3.28709,3.26848 -3.18984,3.4107c0.35513,0.51928 1.05153,0.6981 1.52318,1.11443c2.38333,2.1038 7.16412,7.54181 9.13773,1.92084l0.72073,-0.92084c0,0 1.23744,-1.23744 2.47487,0z"/><path d="M202.62725,151.47483c-0.17729,0.07539 -0.76754,0.28938 -1.35395,0.08629c-0.43544,0.42232 -0.86762,0.96115 -1.47105,1.56173c-0.71007,0.70672 -2.4618,1.14249 -2.1541,2.0959c0.49583,1.53635 3.99093,5.63741 5.9036,5.28462c1.90598,-0.35156 4.02142,-4.6868 2.82825,-6.41417c-0.71713,-1.03818 -2.41789,-2.01603 -3.75274,-2.61437zM205.63784,149.11112c1.51773,0.86639 3.01901,1.99009 3.77847,3.23717c2.25725,3.70656 -0.82565,10.8899 -5.17176,11.58583c-4.07204,0.65204 -9.65173,-4.85196 -10.0964,-8.71537c-0.11689,-1.01561 0.78689,-1.90437 1.37064,-2.74364c1.06571,-1.53216 4.03543,-4.59146 5.80009,-5.24105c0.80741,-0.29721 1.7195,-0.06576 2.57926,-0.09865c0,0 1.75,0 1.75,1.75c0,0.07872 -0.00354,0.15391 -0.01031,0.22571z"/><path d="M231.56481,161.63541c-1.75,0 -1.75,-1.75 -1.75,-1.75v-1.66666c0.00271,-1.30716 0.1185,-2.52711 0.29856,-3.73826c-0.8298,0.95103 -1.69438,1.85912 -2.64446,2.64236c-1.21931,1.0052 -2.22407,2.89349 -3.80306,2.83041c-1.33254,-0.05324 -1.70346,-2.05238 -2.5484,-3.08415c-0.23994,-0.29298 -0.59323,-0.73317 -0.86504,-1.17022c-0.17231,0.46069 -0.39948,0.91971 -0.58414,1.18556c-1.5295,2.20198 -3.58214,3.93863 -4.93619,6.23466c0,0 -0.90036,1.50062 -2.40098,0.60025c-1.50062,-0.90037 -0.60025,-2.40098 -0.60025,-2.40098c1.69687,-2.78955 4.04804,-5.18575 5.93288,-7.87726c0.6277,-0.89635 0.88582,-2.55029 1.97787,-2.62013c0.72296,-0.04624 3.89236,3.03268 4.37054,4.08073c0.21957,0.48126 -0.39389,1.71488 0.11827,1.58253c0.65489,-0.16923 0.46895,-1.28693 0.86362,-1.83625c1.7483,-2.43344 4.27219,-4.74609 6.32169,-6.93813l0.0257,0.00847c0.01205,-0.01159 0.02443,-0.023 0.03714,-0.03421c0.00769,-0.00678 0.0154,-0.01352 0.02314,-0.02022l-0.01555,-0.01807l0.46605,-0.40116l-0.04728,-0.05909l1.65578,-1.32462c0.30117,-0.24519 0.68547,-0.39219 1.10411,-0.39219c0.9665,0 1.75,0.7835 1.75,1.75c0,0.53423 -0.23938,1.01255 -0.61674,1.33354l-1.5281,1.31534c0.70191,2.39525 -0.86121,5.77644 -0.85516,8.35112v1.66666c0,0 0,1.75 -1.75,1.75z"/><path d="M245.56481,149.13541c1.75,0 1.75,1.75 1.75,1.75l-0.06733,1.14743c-0.43158,1.50367 -0.44603,3.138 -1.08472,4.56607c-0.51972,1.16207 -1.51489,2.08211 -1.97311,3.26978c0,0 -0.64994,1.62483 -2.27477,0.9749c-1.62483,-0.64993 -0.9749,-2.27477 -0.9749,-2.27477c0.50096,-1.21968 1.47178,-2.20088 2.02689,-3.39689c0.58962,-1.27034 0.53202,-2.75356 0.91527,-4.10061l-0.06733,-0.1859c0,0 0,-1.75 1.75,-1.75z"/><path d="M244.81481,142.88541c0,-0.9665 0.7835,-1.75 1.75,-1.75c0.9665,0 1.75,0.7835 1.75,1.75c0,0.9665 -0.7835,1.75 -1.75,1.75c-0.9665,0 -1.75,-0.7835 -1.75,-1.75z"/><path d="M257.89814,160.30208c-1.75,0 -1.75,-1.75 -1.75,-1.75l0.12517,-2.3166c0.22222,-0.55555 0.41936,-1.12181 0.66667,-1.66667c2.15571,-4.74935 -4.18131,1.54124 -4.70945,1.7534c-0.03689,0.01481 -0.07389,0.02923 -0.11102,0.04325l0.01234,0.02056l-1.64201,0.9852c-0.26837,0.16744 -0.5854,0.26418 -0.92503,0.26418c-0.9665,0 -1.75,-0.7835 -1.75,-1.75c0,-0.33963 0.09674,-0.65666 0.26418,-0.92503l0.93932,-1.56553c0.60076,-1.40584 1.11273,-2.85293 1.5305,-4.32353c0,0 0.48077,-1.68267 2.16343,-1.20191c1.68266,0.48076 1.2019,2.16343 1.2019,2.16343c-0.00752,0.02621 -0.01508,0.0524 -0.02267,0.0786c1.8382,-0.94858 4.01707,-1.31121 5.30336,-0.35366c1.1162,0.83093 1.56292,2.39953 1.78651,3.77296c0.05156,0.31672 -1.23894,3.45603 -1.45837,4.0046l0.12517,1.01673c0,0 0,1.75 -1.75,1.75z"/><path d="M261.81481,167.88541c0,-1.08561 0.67346,-1.49777 1.18482,-1.65424c1.71697,-1.98943 3.68343,-3.58435 5.26113,-5.73162c-1.25119,0.73531 -2.70655,0.92749 -4.47857,-0.04889c-1.02976,-0.5674 -2.09636,-1.52469 -2.2876,-2.68476c-0.17642,-1.07027 0.77515,-2.04235 1.35753,-2.95746c1.38576,-2.17749 4.12593,-4.57116 6.39609,-5.54787c0,0 1.62483,-0.64993 2.27477,0.97491c0.64994,1.62483 -0.9749,2.27477 -0.9749,2.27477c-1.72699,0.60637 -4.46026,3.30746 -5.57971,4.82801c-0.31461,0.42733 1.06331,0.27062 1.58337,0.16511c0.63678,-0.1292 1.42813,-1.28981 1.75905,-1.72323l0.58105,-1.74317c0.21992,-0.71509 0.88574,-1.23489 1.67296,-1.23489c0.81324,0 1.49692,0.55473 1.69329,1.30644l0.65604,2.29613l-0.03615,0.01033c0.03044,0.07515 0.05933,0.15102 0.08657,0.2277c1.69608,4.77534 -5.27699,9.28758 -7.6999,12.33595l-1.69985,0.65678c0,0 -1.75,0 -1.75,-1.75z"/><path d="M210.82089,175.93552c-0.42062,-0.02376 -0.84107,-0.04382 -1.25848,0.00165c-0.71972,0.0784 -2.28097,1.18265 -1.99775,2.08085c0.42784,1.35683 5.88307,1.66471 4.33995,-1.24587l-0.31053,0.23602c0,0 -0.60061,-0.40041 -0.77319,-1.07265zM213.30235,173.97137c0.14597,0.06648 0.23318,0.12462 0.23318,0.12462l1.68947,1.56936c0.24309,0.95355 0.9539,1.90259 0.72928,2.86066c-1.15017,4.9059 -8.90734,4.88749 -11.14636,1.40309c0.07323,2.73464 -2.64172,5.47512 -4.33901,7.19375c0,0 -1.23744,1.23744 -2.47487,0c-1.23744,-1.23744 0,-2.47487 0,-2.47487c0.48622,-0.47866 3.84916,-4.06961 3.31932,-4.68696c-1.71406,-1.99716 -5.92934,-4.26728 -7,-6.66666c-1.69806,-3.8054 2.68804,-6.95631 5.35108,-8.57622l1.2337,-0.24938c0,0 1.75,0 1.75,1.75c0,1.45793 -1.2146,1.70126 -1.62003,1.74186c-0.36432,0.19314 -0.73179,0.3817 -1.053,0.6375c-0.15688,0.12493 -3.0697,2.53354 -2.49219,3.2117c1.28562,1.50967 3.24054,3.03607 4.66496,4.51727c0.60904,0.63331 1.52383,1.02912 2.05998,1.70006c-0.02863,-0.66222 0.10072,-1.39325 0.42566,-2.18855c0.38094,-0.93238 1.09533,-1.73802 1.8886,-2.35864c1.66122,-1.29964 3.1146,-0.98835 5.04268,-1.0112c0,0 1.58093,0 1.73754,1.50262z"/><path d="M225.26965,179.27101c-0.37814,-0.06673 -1.01905,-0.2768 -1.30701,-0.93806c-1.3436,0.16622 -3.45746,0.67105 -2.54165,1.69024c0.55655,0.61938 3.1203,1.10939 3.95574,1.12236c0.41797,0.00649 1.21175,-0.18938 1.10474,-0.59347c-0.15225,-0.5749 -0.69426,-0.92022 -1.21182,-1.28107zM226.97912,176.26359l0.15646,0.05105c0.99468,1.00719 2.91392,2.64118 2.8459,4.23744c-0.20934,4.91254 -6.23868,4.45046 -9.14792,2.92323c-0.88679,-0.46553 -2.01006,-0.83201 -2.45827,-1.72767c-2.47775,-4.9513 3.62926,-7.38756 7.14388,-6.92175c0,0 1.32594,0.22099 1.45995,1.4377z"/><path d="M241.01141,183.21227c-1.6602,-0.5534 -1.1068,-2.21359 -1.1068,-2.21359l0.26734,-0.7343c0.73989,-3.52804 -1.2708,-1.86864 -3.72041,-1.05211c0,0 -0.01496,0.00499 -0.0425,0.01259c-0.23111,1.15743 -0.49558,2.30548 -0.82823,3.47464c0,0 -0.48076,1.68267 -2.16343,1.2019c-1.68267,-0.48076 -1.2019,-2.16343 -1.2019,-2.16343c0.58991,-2.05531 0.93889,-4.03476 1.28981,-6.14027l-0.02381,-0.37897c0,0 0,-1.75 1.75,-1.75c1.75,0 1.75,1.75 1.75,1.75l-0.00345,0.13839c3.03267,-0.93601 6.29242,-1.41958 6.99332,3.00687c0.13033,0.82307 -0.23134,1.65051 -0.34701,2.47577l-0.39933,1.2657c0,0 -0.5534,1.6602 -2.21359,1.1068z"/></g></g></svg>