<svg version="1.1" xmlns="http://www.w3.org/2000/svg" xmlns:xlink="http://www.w3.org/1999/xlink" width="41.62847" height="32" viewBox="0,0,41.62847,32"><defs><radialGradient cx="240.00002" cy="180" r="15.66666" gradientUnits="userSpaceOnUse" id="color-1"><stop offset="0" stop-color="#1cd200"/><stop offset="1" stop-color="#72ff66"/></radialGradient><radialGradient cx="240.00002" cy="180" r="16.16667" gradientUnits="userSpaceOnUse" id="color-2"><stop offset="0" stop-color="#000000" stop-opacity="0"/><stop offset="1" stop-color="#000000" stop-opacity="0"/></radialGradient></defs><g transform="translate(-223.83334,-164)"><g data-paper-data="{&quot;isPaintingLayer&quot;:true}" fill-rule="nonzero" stroke="none" stroke-linecap="butt" stroke-linejoin="miter" stroke-miterlimit="10" stroke-dasharray="" stroke-dashoffset="0" style="mix-blend-mode: normal"><path d="M224.33336,180c0,-8.65246 7.01421,-15.66666 15.66666,-15.66666c8.65246,0 15.66666,7.01421 15.66666,15.66666c0,8.65246 -7.01421,15.66666 -15.66666,15.66666c-8.65246,0 -15.66666,-7.01421 -15.66666,-15.66666z" fill="url(#color-1)" stroke-width="0"/><path d="M223.83335,196v-32h32.33333v32z" fill="url(#color-2)" stroke-width="0"/><path d="M231.82214,174.80914c1.34061,-1.49885 1.55607,-1.83895 -0.25288,-0.78113c0,0 -0.06565,0.03752 -0.17389,0.07794c0.0217,0.37618 0.05783,0.73321 0.11623,1.09119zM234.00454,170.8229c2.45883,1.30227 0.80095,4.25254 -0.26184,5.58671l-0.65086,0.81397c0,0 -0.43936,0.5492 -1.07091,0.49412l0.01149,0.89168c0,0 0,1.25 -1.25,1.25c-1.25,0 -1.25,-1.25 -1.25,-1.25l0.02006,-1.1103c-0.62089,-1.61767 -0.68482,-2.99484 -0.68673,-4.72303c0,0 0,-1.25 1.25,-1.25c0.23613,0 0.42765,0.0446 0.583,0.11696c0.93956,-0.55212 2.30385,-1.35076 3.30579,-0.82011z" fill="#000000" stroke-width="0.5"/><path d="M239.14585,173.52698c-0.15746,0.1579 -0.31665,0.31401 -0.47955,0.46627c-0.31012,0.28989 -1.08749,0.67384 -0.80275,0.98871c0.95132,1.05201 3.6431,-0.71855 2.22814,-1.23775zM240.26491,171.24308l0.8749,0.23145c0.59582,0.48879 1.48586,0.75717 1.78746,1.46637c2.19363,5.15821 -9.21122,7.0945 -7.2997,0.69012c0.07624,-0.25544 2.43265,-2.56721 2.6043,-2.73887c0,0 0.88388,-0.88388 1.76776,0c0.11767,0.11767 0.20401,0.23533 0.26528,0.35092z" fill="#000000" stroke-width="0.5"/><path d="M253.03242,171.60937c0,0.43902 -0.15419,0.72385 -0.35426,0.90864c-0.42157,1.68433 -1.03412,3.66727 -3.36745,3.47023c-0.49782,-0.04204 -0.35648,-0.9749 -0.72587,-1.31126c-0.14865,-0.13535 0.11469,0.49215 -0.05455,0.60065c-0.82477,0.52873 -1.76268,1.45381 -2.69861,1.1643c-1.28167,-0.39646 -1.13412,-3.83097 -1.553,-4.89366c0,0 -0.43891,-1.17041 0.7315,-1.60931c1.17041,-0.43891 1.60932,0.73151 1.60932,0.73151c0.18651,0.5164 0.4608,1.00911 0.55953,1.54921c0.04005,0.21909 0.02186,0.58451 -0.02683,0.94443c0.65452,-0.57134 1.80086,-0.95839 1.8278,-0.95569c0.54723,0.05487 0.59376,0.92875 0.9408,1.35541c0.21779,0.26775 0.08372,-0.68789 0.17703,-1.02018c0.11487,-0.40903 0.2035,-0.82496 0.30525,-1.23744l1.37935,-0.94683c0,0 1.25,0 1.25,1.25z" fill="#000000" stroke-width="0.5"/><path d="M232.91827,183.81824c-1.59593,0.96576 -1.04829,2.49812 0.95634,3.78246c0.89816,0.57544 1.00859,-1.54606 0.77696,-1.95871c-0.23245,-0.41411 -0.50832,-0.8023 -0.76248,-1.20346l-0.63338,-0.2891c0,0 -0.17785,-0.11857 -0.33744,-0.33119zM234.50318,181.99302c0.08776,0.04194 0.13928,0.07629 0.13928,0.07629l1.36662,1.04423c0.63626,1.02963 1.60821,2.30483 1.51725,3.619c-0.14971,2.16311 -2.48217,3.7979 -4.50278,3.21883c-2.25716,-0.64685 -4.51772,-4.58346 -3.34213,-6.76722c0.72259,-1.34227 1.92424,-1.59786 3.16209,-2.07853c0,0 1.17041,-0.4389 1.60932,0.73151c0.02005,0.05348 0.03675,0.10543 0.05035,0.15589z" fill="#000000" stroke-width="0.5"/><path d="M244.99963,188.82659c-0.88388,0.88388 -1.76777,0 -1.76777,0l-0.74306,-0.75032c-0.45654,-0.55144 -1.1119,-0.96418 -1.63456,-1.46059c0.17584,0.54505 0.33048,1.0934 0.34483,1.66036v0.5c0,0 0,1.25 -1.25,1.25c-1.25,0 -1.25,-1.25 -1.25,-1.25v-0.5c0.03123,-0.75501 -0.45041,-1.44391 -0.62479,-2.17917c-0.37405,-1.57713 0.06846,-3.02964 -0.22096,-4.54441c-0.02671,-0.05274 -0.05169,-0.10959 -0.07466,-0.17085c-0.06634,-0.1769 -0.09591,-0.33709 -0.09832,-0.48158c-0.02122,-0.06155 -0.04397,-0.12324 -0.06835,-0.18509c0,0 -0.4389,-1.17041 0.73151,-1.60932c0.65972,-0.2474 1.08703,0.01652 1.33432,0.29393c1.71375,-0.45782 3.75416,-0.53641 4.32625,1.77852c0.08297,0.33574 -1.58407,3.41398 -1.58338,3.41477c0.59817,0.6896 1.4023,1.18327 1.98865,1.88296l0.59027,0.58301c0,0 0.88388,0.88388 0,1.76777zM240.28709,183.61756c0.58626,-1.40858 1.74437,-2.4071 0.00931,-1.83857c0.02228,0.6188 -0.01116,1.22908 -0.00931,1.83857z" fill="#000000" stroke-width="0.5"/><path d="M248.51492,180.29218c-0.02936,0.18496 -0.10801,0.47585 -0.31865,0.70725c0.19463,0.35796 0.3266,0.70147 0.41163,1.06518c0.1789,-0.39166 0.42759,-0.76919 0.62839,-1.13942c0.19988,-0.36853 1.14492,-0.80249 0.77159,-0.99324c-0.54794,-0.27997 -1.08911,-0.00235 -1.49295,0.36023zM248.7334,183.76288c-0.00679,0.23273 -0.01945,0.4811 -0.03623,0.74895c-0.02317,0.36978 -0.0151,0.74106 -0.00745,1.11148c0.00531,0.25704 -0.06553,1.02554 -0.0324,0.77059c0.08524,-0.65582 1.12258,-1.22101 0.78607,-1.85084c-0.15878,-0.2972 -0.46557,-0.52842 -0.70999,-0.78018zM246.31637,179.1653l0.08216,-0.27314c2.13187,-1.92777 6.52182,-2.25625 5.91429,2.0771c-0.10791,0.76966 -1.70165,1.08323 -1.45644,1.82072c0.33438,1.00566 1.2306,2.01231 0.94973,3.0342c-0.5915,2.15208 -2.89854,4.07912 -4.97536,2.09566c-1.84736,-1.76432 0.27866,-4.70039 -1.49741,-6.66364c0,0 -0.81349,-0.94907 0.13558,-1.76256c0.30378,-0.26039 0.59368,-0.34019 0.84745,-0.32834z" fill="#000000" stroke-width="0.5"/><path d="M253.96181,186.39453c0,-0.69036 0.55964,-1.25 1.25,-1.25c0.69036,0 1.25,0.55964 1.25,1.25c0,0.69036 -0.55964,1.25 -1.25,1.25c-0.69036,0 -1.25,-0.55964 -1.25,-1.25z" fill="#6d6d6d" stroke-width="0.5"/><path d="M258.33681,186.01953c0,-0.69036 0.55964,-1.25 1.25,-1.25c0.69036,0 1.25,0.55964 1.25,1.25c0,0.69036 -0.55964,1.25 -1.25,1.25c-0.69036,0 -1.25,-0.55964 -1.25,-1.25z" fill="#6d6d6d" stroke-width="0.5"/><path d="M262.96181,185.26953c0,-0.69036 0.55964,-1.25 1.25,-1.25c0.69036,0 1.25,0.55964 1.25,1.25c0,0.69036 -0.55964,1.25 -1.25,1.25c-0.69036,0 -1.25,-0.55964 -1.25,-1.25z" fill="#6d6d6d" stroke-width="0.5"/></g></g></svg>